<?xml version="1.0" encoding="UTF-8"?>
<svg width="272px" height="512px" viewBox="0 0 272 512" version="1.1" xmlns="http://www.w3.org/2000/svg" xmlns:xlink="http://www.w3.org/1999/xlink">
    <!-- Generator: Sketch 45.2 (43514) - http://www.bohemiancoding.com/sketch -->
    <title>rocket</title>
    <desc>Created with Sketch.</desc>
    <defs></defs>
    <g id="Page-1" stroke="none" stroke-width="1" fill="none" fill-rule="evenodd">
        <g id="Artboard" fill-rule="nonzero">
            <g id="rocket">
                <g id="Group">
                    <path d="M197.024,306.849 C197.376,303.466 199.821,300.669 203.133,299.884 C206.438,299.103 209.891,300.486 211.727,303.353 L260.743,379.982 C268.11,391.552 272.001,404.919 272.001,418.638 L272.001,504.001 C272.001,507.384 269.876,510.399 266.689,511.536 C265.814,511.848 264.9,512.001 264.001,512.001 C261.649,512.001 259.36,510.962 257.806,509.067 L187.486,423.118 C186.142,421.47 185.509,419.352 185.72,417.235 L197.024,306.849 Z" id="Shape" fill="#FF4F19"></path>
                    <path d="M74.977,306.849 C74.625,303.466 72.18,300.669 68.868,299.884 C65.563,299.103 62.11,300.486 60.274,303.353 L11.258,379.982 C3.891,391.552 1.42108547e-14,404.919 1.42108547e-14,418.638 L1.42108547e-14,504.001 C1.42108547e-14,507.384 2.125,510.399 5.312,511.536 C6.187,511.848 7.101,512.001 8,512.001 C10.352,512.001 12.641,510.962 14.195,509.067 L84.515,423.118 C85.859,421.47 86.492,419.352 86.281,417.235 L74.977,306.849 Z" id="Shape" fill="#E9001E"></path>
                    <path d="M140.118,1.143 C137.587,-0.38 134.415,-0.38 131.884,1.143 C128.462,3.198 48.001,52.705 48.001,160.002 C48.001,203.326 58.767,318.596 73.048,428.127 C75.118,444.018 88.751,456.002 104.743,456.002 L167.259,456.002 C183.251,456.002 196.884,444.018 198.954,428.127 C213.235,318.596 224.001,203.326 224.001,160.002 C224.001,52.705 143.54,3.197 140.118,1.143 Z" id="Shape" fill="#FFD200"></path>
                    <path d="M136.001,456.002 L104.743,456.002 C88.751,456.002 75.118,444.018 73.048,428.127 C58.767,318.596 48.001,203.326 48.001,160.002 C48.001,52.705 128.462,3.197 131.884,1.143 C133.145,0.384 134.566,0.005 135.987,0.002 L136.002,0.002 L136.002,456.002 L136.001,456.002 Z" id="Shape" fill="#FF9600"></path>
                    <circle id="Oval" fill="#53DCFF" cx="136.001" cy="168.002" r="48"></circle>
                    <path d="M136.001,512.002 C131.579,512.002 128.001,508.42 128.001,504.002 L128.001,312.002 C128.001,307.584 131.579,304.002 136.001,304.002 C140.423,304.002 144.001,307.584 144.001,312.002 L144.001,504.002 C144.001,508.42 140.423,512.002 136.001,512.002 Z" id="Shape" fill="#FF4F19"></path>
                    <path d="M131.884,1.143 C129.596,2.517 92.904,25.132 68.813,72.002 L203.189,72.002 C179.098,25.132 142.406,2.516 140.118,1.143 C137.587,-0.381 134.415,-0.381 131.884,1.143 Z" id="Shape" fill="#FF4F19"></path>
                    <path d="M136.001,0 C134.575,0 133.149,0.381 131.884,1.143 C129.596,2.517 92.904,25.132 68.813,72.002 L136.001,72.002 L136.001,0 Z" id="Shape" fill="#E9001E"></path>
                    <path d="M184.001,168.002 C184.001,141.492 162.511,120.002 136.001,120.002 L136.001,216.002 C162.511,216.002 184.001,194.512 184.001,168.002 Z" id="Shape" fill="#B3F4FF"></path>
                </g>
                <path d="M136.001,224.002 C105.126,224.002 80.001,198.881 80.001,168.002 C80.001,137.123 105.126,112.002 136.001,112.002 C166.876,112.002 192.001,137.123 192.001,168.002 C192.001,198.881 166.876,224.002 136.001,224.002 Z M136.001,128.002 C113.946,128.002 96.001,145.947 96.001,168.002 C96.001,190.057 113.946,208.002 136.001,208.002 C158.056,208.002 176.001,190.057 176.001,168.002 C176.001,145.947 158.056,128.002 136.001,128.002 Z" id="Shape" fill="#5C546A"></path>
            </g>
        </g>
    </g>
</svg>